<?xml version="1.0" encoding="UTF-8" standalone="no"?>
<svg
   xmlns:dc="http://purl.org/dc/elements/1.1/"
   xmlns:cc="http://creativecommons.org/ns#"
   xmlns:rdf="http://www.w3.org/1999/02/22-rdf-syntax-ns#"
   xmlns:svg="http://www.w3.org/2000/svg"
   xmlns="http://www.w3.org/2000/svg"
   xmlns:sodipodi="http://sodipodi.sourceforge.net/DTD/sodipodi-0.dtd"
   xmlns:inkscape="http://www.inkscape.org/namespaces/inkscape"
   viewBox="0 0 198.94 94.15"
   version="1.1"
   id="svg58"
   sodipodi:docname="logo01_bbb.svg"
   inkscape:version="1.0.2 (1.0.2+r75+1)">
  <metadata
     id="metadata62">
    <rdf:RDF>
      <cc:Work
         rdf:about="">
        <dc:format>image/svg+xml</dc:format>
        <dc:type
           rdf:resource="http://purl.org/dc/dcmitype/StillImage" />
      </cc:Work>
    </rdf:RDF>
  </metadata>
  <sodipodi:namedview
     pagecolor="#ffffff"
     bordercolor="#666666"
     borderopacity="1"
     objecttolerance="10"
     gridtolerance="10"
     guidetolerance="10"
     inkscape:pageopacity="0"
     inkscape:pageshadow="2"
     inkscape:window-width="1920"
     inkscape:window-height="1021"
     id="namedview60"
     showgrid="false"
     inkscape:zoom="6.1928219"
     inkscape:cx="89.45841"
     inkscape:cy="47.075001"
     inkscape:window-x="0"
     inkscape:window-y="27"
     inkscape:window-maximized="1"
     inkscape:current-layer="Layer_2" />
  <defs
     id="defs24">
    <style
       id="style2">.cls-1{fill:#dde9fa;}.cls-2{fill:url(#New_Gradient_Swatch_2);}.cls-3{fill:url(#New_Gradient_Swatch_3);}</style>
    <linearGradient
       id="New_Gradient_Swatch_2"
       x1="43.24"
       y1="34.51"
       x2="43.24"
       y2="44.84"
       gradientUnits="userSpaceOnUse">
      <stop
         offset="0"
         stop-color="#f4b321"
         id="stop4" />
      <stop
         offset="0.58"
         stop-color="#fbc80b"
         id="stop6" />
      <stop
         offset="1"
         stop-color="#ffd200"
         id="stop8" />
    </linearGradient>
    <linearGradient
       id="New_Gradient_Swatch_3"
       x1="-5446.53"
       y1="34.5"
       x2="-5446.53"
       y2="89.63"
       gradientTransform="translate(5546)"
       gradientUnits="userSpaceOnUse">
      <stop
         offset="0"
         stop-color="#3d3b3b"
         id="stop11" />
      <stop
         offset="0.27"
         stop-color="#393737"
         id="stop13" />
      <stop
         offset="0.52"
         stop-color="#2e2d2d"
         id="stop15" />
      <stop
         offset="0.76"
         stop-color="#1c1b1b"
         id="stop17" />
      <stop
         offset="0.99"
         stop-color="#020202"
         id="stop19" />
      <stop
         offset="1"
         id="stop21" />
    </linearGradient>
  </defs>
  <title
     id="title26">Asset 20</title>
  <g
     id="Layer_2"
     data-name="Layer 2">
    <path
       class="cls-1"
       d="m 84.86,14.91 41.92,29.17 c 7.06,4.92 14.85,11.1 15.12,19.7 0.18,5.93 -3.52,11.44 -8.29,15 C 128.84,82.34 123.1,84.17 117.45,86 77,99 24,102.08 7.75,51.9 2.31,35.16 10.31,19.43 23.75,8.8 44.29,-7.53 65.48,1.43 84.86,14.91 Z"
       id="path28" />
    <path
       class="cls-2"
       d="m 48.38,39.65 a 5.14,5.14 0 1 1 -10.27,0 5.14,5.14 0 1 1 10.27,0 z"
       id="path30"
       style="fill:url(#New_Gradient_Swatch_2)" />
    <path
       d="m 33.8,66.18 a 10.18,10.18 0 0 1 -1.12,4.94 9.46,9.46 0 0 1 -3.08,3.39 13.85,13.85 0 0 1 -4.6,1.95 23.31,23.31 0 0 1 -5.51,0.63 H 0 V 34.5 h 23.06 a 7.42,7.42 0 0 1 3.75,1 9.58,9.58 0 0 1 2.85,2.5 11.77,11.77 0 0 1 1.82,3.48 12.62,12.62 0 0 1 0.64,4 12.11,12.11 0 0 1 -1.43,5.73 9.18,9.18 0 0 1 -4.28,4.11 10.42,10.42 0 0 1 5.4,3.68 11.71,11.71 0 0 1 1.99,7.18 z M 10.91,44.46 V 51 h 7.45 a 3.45,3.45 0 0 0 2,-0.66 3.1,3.1 0 0 0 0.92,-2.64 3.35,3.35 0 0 0 -0.78,-2.49 2.6,2.6 0 0 0 -1.85,-0.75 z m 11.81,19.32 a 4.26,4.26 0 0 0 -0.78,-2.61 2.43,2.43 0 0 0 -2,-1.05 h -9 v 7.14 h 8.62 a 3.13,3.13 0 0 0 2.27,-0.9 3.46,3.46 0 0 0 0.89,-2.58 z"
       id="path32" />
    <path
       d="M 37.83,77.09 V 47.66 h 10.63 v 29.43 z"
       id="path34" />
    <path
       d="M 65.14,77.09 A 11.93,11.93 0 0 1 59.91,76 a 12.16,12.16 0 0 1 -4.06,-3.14 14.24,14.24 0 0 1 -2.6,-4.67 17.67,17.67 0 0 1 -0.93,-5.82 18,18 0 0 1 1,-6.1 14.2,14.2 0 0 1 2.83,-4.81 12.85,12.85 0 0 1 4.33,-3.16 13.15,13.15 0 0 1 5.52,-1.2 11.92,11.92 0 0 1 5.6,1.26 9.36,9.36 0 0 1 3.83,3.64 v -4.34 h 9.24 v 26.75 a 14.83,14.83 0 0 1 -1.29,6.27 13.37,13.37 0 0 1 -3.64,4.75 17,17 0 0 1 -5.65,3 23.17,23.17 0 0 1 -7.33,1.09 21,21 0 0 1 -8.17,-1.45 18.75,18.75 0 0 1 -6.16,-4.2 L 58,78.1 a 14.41,14.41 0 0 0 3.89,2.55 11.49,11.49 0 0 0 4.84,1 A 9.71,9.71 0 0 0 69.5,81.26 6.16,6.16 0 0 0 71.85,80 6,6 0 0 0 73.45,77.74 8.74,8.74 0 0 0 74,74.41 V 72.5 a 7.9,7.9 0 0 1 -3.63,3.5 12.09,12.09 0 0 1 -5.23,1.09 z m 3.8,-8.39 A 5.16,5.16 0 0 0 71.77,67.94 8.23,8.23 0 0 0 74,65.68 v -5.26 a 7.16,7.16 0 0 0 -2.33,-3.19 5.18,5.18 0 0 0 -3.21,-1.18 4.37,4.37 0 0 0 -2.1,0.53 5.94,5.94 0 0 0 -1.67,1.42 6.07,6.07 0 0 0 -1.12,2.07 8.25,8.25 0 0 0 -0.39,2.55 6.09,6.09 0 0 0 1.62,4.38 5.5,5.5 0 0 0 4.14,1.7 z"
       id="path36" />
    <path
       d="M 92.89,34.5 H 95 L 102.16,74.63 115,52.44 111.75,34.86 h 2 l 2.74,15.72 9,-15.72 h 2 l -10.31,17.58 4.14,22.19 23,-40.13 h 2.13 l -24.74,42.59 h -1.84 l -4.14,-22.67 -13.16,22.67 h -1.84 z"
       id="path38" />
    <path
       d="m 151.54,77.65 a 9.28,9.28 0 0 1 -4.34,-1 10.22,10.22 0 0 1 -3.27,-2.72 12,12 0 0 1 -2,-3.92 15.06,15.06 0 0 1 -0.7,-4.61 17.11,17.11 0 0 1 1.34,-6.63 19.71,19.71 0 0 1 3.61,-5.71 18.28,18.28 0 0 1 5.2,-4 13.12,13.12 0 0 1 6.08,-1.51 9.89,9.89 0 0 1 3.44,0.56 9.4,9.4 0 0 1 2.74,1.53 10.64,10.64 0 0 1 2.07,2.27 12,12 0 0 1 1.29,2.69 l 1.4,-6.61 h 2 l -5.54,25.91 a 2,2 0 0 0 -0.11,0.68 q 0,0.72 0.78,0.72 l -0.39,1.79 h -0.28 -0.28 a 1.59,1.59 0 0 1 -1.32,-0.53 2,2 0 0 1 -0.42,-1.26 2.38,2.38 0 0 1 0,-0.36 c 0,-0.14 0.06,-0.34 0.11,-0.62 0.05,-0.28 0.13,-0.67 0.23,-1.18 0.1,-0.51 0.23,-1.18 0.42,-2 a 18.74,18.74 0 0 1 -5.6,4.7 13.26,13.26 0 0 1 -6.46,1.81 z m 0.56,-1.79 a 10.72,10.72 0 0 0 3.58,-0.67 16.42,16.42 0 0 0 3.67,-1.85 15.74,15.74 0 0 0 3.1,-2.68 8.49,8.49 0 0 0 1.85,-3.19 l 2.13,-10 a 9.15,9.15 0 0 0 -1,-3.08 9.65,9.65 0 0 0 -2,-2.57 9.93,9.93 0 0 0 -2.82,-1.82 8.59,8.59 0 0 0 -3.42,-0.67 10.79,10.79 0 0 0 -5.34,1.42 16.55,16.55 0 0 0 -4.48,3.7 18.66,18.66 0 0 0 -3.08,5.09 15.07,15.07 0 0 0 -1.14,5.68 12.22,12.22 0 0 0 0.67,4.06 11.35,11.35 0 0 0 1.84,3.38 9.09,9.09 0 0 0 2.83,2.34 7.72,7.72 0 0 0 3.61,0.86 z"
       id="path40" />
    <path
       d="m 170.23,88.06 a 14.5,14.5 0 0 0 2.94,-0.84 8.07,8.07 0 0 0 2.21,-1.37 12.86,12.86 0 0 0 2,-2.18 c 0.63,-0.88 1.36,-1.93 2.18,-3.16 l 2.13,-3.3 L 175.21,48 h 2 l 5.82,27.09 3,-4.76 c 1.72,-2.72 3.17,-5.11 4.37,-7.16 1.2,-2.05 2.2,-3.92 3,-5.6 0.8,-1.68 1.51,-3.27 2.07,-4.78 0.56,-1.51 1.08,-3.12 1.53,-4.79 h 1.9 q -0.78,2.68 -1.62,5 a 48,48 0 0 1 -2.13,4.93 q -1.29,2.59 -3.16,5.79 -1.87,3.2 -4.68,7.61 l -4.53,7.22 c -1.3,2.09 -2.46,3.81 -3.47,5.18 a 21.79,21.79 0 0 1 -2.84,3.27 9.93,9.93 0 0 1 -2.77,1.82 12.17,12.17 0 0 1 -3.25,0.81 z"
       id="path42" />
    <path
       class="cls-3"
       d="m 33.8,66.18 a 10.18,10.18 0 0 1 -1.12,4.94 9.46,9.46 0 0 1 -3.08,3.39 13.85,13.85 0 0 1 -4.6,1.95 23.31,23.31 0 0 1 -5.51,0.63 H 0 V 34.5 h 23.06 a 7.42,7.42 0 0 1 3.75,1 9.58,9.58 0 0 1 2.85,2.5 11.77,11.77 0 0 1 1.82,3.48 12.62,12.62 0 0 1 0.64,4 12.11,12.11 0 0 1 -1.43,5.73 9.18,9.18 0 0 1 -4.28,4.11 10.42,10.42 0 0 1 5.4,3.68 11.71,11.71 0 0 1 1.99,7.18 z M 10.91,44.46 V 51 h 7.45 a 3.45,3.45 0 0 0 2,-0.66 3.1,3.1 0 0 0 0.92,-2.64 3.35,3.35 0 0 0 -0.78,-2.49 2.6,2.6 0 0 0 -1.85,-0.75 z m 11.81,19.32 a 4.26,4.26 0 0 0 -0.78,-2.61 2.43,2.43 0 0 0 -2,-1.05 h -9 v 7.14 h 8.62 a 3.13,3.13 0 0 0 2.27,-0.9 3.46,3.46 0 0 0 0.89,-2.58 z"
       id="path44"
       style="fill:#ffffff" />
    <path
       class="cls-3"
       d="M 37.83,77.09 V 47.66 h 10.63 v 29.43 z"
       id="path46"
       style="fill:#ffffff" />
    <path
       class="cls-3"
       d="M 65.14,77.09 A 11.93,11.93 0 0 1 59.91,76 a 12.16,12.16 0 0 1 -4.06,-3.14 14.24,14.24 0 0 1 -2.6,-4.67 17.67,17.67 0 0 1 -0.93,-5.82 18,18 0 0 1 1,-6.1 14.2,14.2 0 0 1 2.83,-4.81 12.85,12.85 0 0 1 4.33,-3.16 13.15,13.15 0 0 1 5.52,-1.2 11.92,11.92 0 0 1 5.6,1.26 9.36,9.36 0 0 1 3.83,3.64 v -4.34 h 9.24 v 26.75 a 14.83,14.83 0 0 1 -1.29,6.27 13.37,13.37 0 0 1 -3.64,4.75 17,17 0 0 1 -5.65,3 23.17,23.17 0 0 1 -7.33,1.09 21,21 0 0 1 -8.17,-1.45 18.75,18.75 0 0 1 -6.16,-4.2 L 58,78.1 a 14.41,14.41 0 0 0 3.89,2.55 11.49,11.49 0 0 0 4.84,1 A 9.71,9.71 0 0 0 69.5,81.26 6.16,6.16 0 0 0 71.85,80 6,6 0 0 0 73.45,77.74 8.74,8.74 0 0 0 74,74.41 V 72.5 a 7.9,7.9 0 0 1 -3.63,3.5 12.09,12.09 0 0 1 -5.23,1.09 z m 3.8,-8.39 A 5.16,5.16 0 0 0 71.77,67.94 8.23,8.23 0 0 0 74,65.68 v -5.26 a 7.16,7.16 0 0 0 -2.33,-3.19 5.18,5.18 0 0 0 -3.21,-1.18 4.37,4.37 0 0 0 -2.1,0.53 5.94,5.94 0 0 0 -1.67,1.42 6.07,6.07 0 0 0 -1.12,2.07 8.25,8.25 0 0 0 -0.39,2.55 6.09,6.09 0 0 0 1.62,4.38 5.5,5.5 0 0 0 4.14,1.7 z"
       id="path48"
       style="fill:#ffffff" />
    <path
       class="cls-3"
       d="M 92.89,34.5 H 95 L 102.16,74.63 115,52.44 111.75,34.86 h 2 l 2.74,15.72 9,-15.72 h 2 l -10.31,17.58 4.14,22.19 23,-40.13 h 2.13 l -24.74,42.59 h -1.84 l -4.14,-22.67 -13.16,22.67 h -1.84 z"
       id="path50"
       style="fill:#ffffff" />
    <path
       class="cls-3"
       d="m 151.54,77.65 a 9.28,9.28 0 0 1 -4.34,-1 10.22,10.22 0 0 1 -3.27,-2.72 12,12 0 0 1 -2,-3.92 15.06,15.06 0 0 1 -0.7,-4.61 17.11,17.11 0 0 1 1.34,-6.63 19.71,19.71 0 0 1 3.61,-5.71 18.28,18.28 0 0 1 5.2,-4 13.12,13.12 0 0 1 6.08,-1.51 9.89,9.89 0 0 1 3.44,0.56 9.4,9.4 0 0 1 2.74,1.53 10.64,10.64 0 0 1 2.07,2.27 12,12 0 0 1 1.29,2.69 l 1.4,-6.61 h 2 l -5.54,25.91 a 2,2 0 0 0 -0.11,0.68 q 0,0.72 0.78,0.72 l -0.39,1.79 h -0.28 -0.28 a 1.59,1.59 0 0 1 -1.32,-0.53 2,2 0 0 1 -0.42,-1.26 2.38,2.38 0 0 1 0,-0.36 c 0,-0.14 0.06,-0.34 0.11,-0.62 0.05,-0.28 0.13,-0.67 0.23,-1.18 0.1,-0.51 0.23,-1.18 0.42,-2 a 18.74,18.74 0 0 1 -5.6,4.7 13.26,13.26 0 0 1 -6.46,1.81 z m 0.56,-1.79 a 10.72,10.72 0 0 0 3.58,-0.67 16.42,16.42 0 0 0 3.67,-1.85 15.74,15.74 0 0 0 3.1,-2.68 8.49,8.49 0 0 0 1.85,-3.19 l 2.13,-10 a 9.15,9.15 0 0 0 -1,-3.08 9.65,9.65 0 0 0 -2,-2.57 9.93,9.93 0 0 0 -2.82,-1.82 8.59,8.59 0 0 0 -3.42,-0.67 10.79,10.79 0 0 0 -5.34,1.42 16.55,16.55 0 0 0 -4.48,3.7 18.66,18.66 0 0 0 -3.08,5.09 15.07,15.07 0 0 0 -1.14,5.68 12.22,12.22 0 0 0 0.67,4.06 11.35,11.35 0 0 0 1.84,3.38 9.09,9.09 0 0 0 2.83,2.34 7.72,7.72 0 0 0 3.61,0.86 z"
       id="path52"
       style="fill:#ffffff" />
    <path
       class="cls-3"
       d="m 170.23,88.06 a 14.5,14.5 0 0 0 2.94,-0.84 8.07,8.07 0 0 0 2.21,-1.37 12.86,12.86 0 0 0 2,-2.18 c 0.63,-0.88 1.36,-1.93 2.18,-3.16 l 2.13,-3.3 L 175.21,48 h 2 l 5.82,27.09 3,-4.76 c 1.72,-2.72 3.17,-5.11 4.37,-7.16 1.2,-2.05 2.2,-3.92 3,-5.6 0.8,-1.68 1.51,-3.27 2.07,-4.78 0.56,-1.51 1.08,-3.12 1.53,-4.79 h 1.9 q -0.78,2.68 -1.62,5 a 48,48 0 0 1 -2.13,4.93 q -1.29,2.59 -3.16,5.79 -1.87,3.2 -4.68,7.61 l -4.53,7.22 c -1.3,2.09 -2.46,3.81 -3.47,5.18 a 21.79,21.79 0 0 1 -2.84,3.27 9.93,9.93 0 0 1 -2.77,1.82 12.17,12.17 0 0 1 -3.25,0.81 z"
       id="path54"
       style="fill:#ffffff" />
  </g>
</svg>
