<svg xmlns="http://www.w3.org/2000/svg" xmlns:xlink="http://www.w3.org/1999/xlink" viewBox="0 0 198.94 94.15"><defs><style>.cls-1{fill:#dde9fa;}.cls-2{fill:url(#New_Gradient_Swatch_2);}.cls-3{fill:url(#New_Gradient_Swatch_3);}</style><linearGradient id="New_Gradient_Swatch_2" x1="43.24" y1="34.51" x2="43.24" y2="44.84" gradientUnits="userSpaceOnUse"><stop offset="0" stop-color="#f4b321"/><stop offset="0.58" stop-color="#fbc80b"/><stop offset="1" stop-color="#ffd200"/></linearGradient><linearGradient id="New_Gradient_Swatch_3" x1="-5446.53" y1="34.5" x2="-5446.53" y2="89.63" gradientTransform="translate(5546)" gradientUnits="userSpaceOnUse"><stop offset="0" stop-color="#3d3b3b"/><stop offset="0.27" stop-color="#393737"/><stop offset="0.52" stop-color="#2e2d2d"/><stop offset="0.76" stop-color="#1c1b1b"/><stop offset="0.99" stop-color="#020202"/><stop offset="1"/></linearGradient></defs><title>Asset 20</title><g id="Layer_2" data-name="Layer 2"><g id="Layer_1-2" data-name="Layer 1"><path class="cls-1" d="M84.86,14.91l41.92,29.17c7.06,4.92,14.85,11.1,15.12,19.7.18,5.93-3.52,11.44-8.29,15S123.1,84.17,117.45,86C77,99,24,102.08,7.75,51.9c-5.44-16.74,2.56-32.47,16-43.1C44.29-7.53,65.48,1.43,84.86,14.91Z"/><path class="cls-2" d="M48.38,39.65a5.14,5.14,0,1,1-10.27,0,5.14,5.14,0,1,1,10.27,0Z"/><path d="M33.8,66.18a10.18,10.18,0,0,1-1.12,4.94,9.46,9.46,0,0,1-3.08,3.39A13.85,13.85,0,0,1,25,76.46a23.31,23.31,0,0,1-5.51.63H0V34.5H23.06a7.42,7.42,0,0,1,3.75,1A9.58,9.58,0,0,1,29.66,38a11.77,11.77,0,0,1,1.82,3.48,12.62,12.62,0,0,1,.64,4,12.11,12.11,0,0,1-1.43,5.73,9.18,9.18,0,0,1-4.28,4.11A10.42,10.42,0,0,1,31.81,59,11.71,11.71,0,0,1,33.8,66.18ZM10.91,44.46V51h7.45a3.45,3.45,0,0,0,2-.66,3.1,3.1,0,0,0,.92-2.64,3.35,3.35,0,0,0-.78-2.49,2.6,2.6,0,0,0-1.85-.75ZM22.72,63.78a4.26,4.26,0,0,0-.78-2.61,2.43,2.43,0,0,0-2-1.05h-9v7.14h8.62a3.13,3.13,0,0,0,2.27-.9A3.46,3.46,0,0,0,22.72,63.78Z"/><path d="M37.83,77.09V47.66H48.46V77.09Z"/><path d="M65.14,77.09A11.93,11.93,0,0,1,59.91,76a12.16,12.16,0,0,1-4.06-3.14,14.24,14.24,0,0,1-2.6-4.67,17.67,17.67,0,0,1-.93-5.82,18,18,0,0,1,1-6.1,14.2,14.2,0,0,1,2.83-4.81,12.85,12.85,0,0,1,4.33-3.16A13.15,13.15,0,0,1,66,47.1a11.92,11.92,0,0,1,5.6,1.26A9.36,9.36,0,0,1,75.43,52V47.66h9.24V74.41a14.83,14.83,0,0,1-1.29,6.27,13.37,13.37,0,0,1-3.64,4.75,17,17,0,0,1-5.65,3,23.17,23.17,0,0,1-7.33,1.09,21,21,0,0,1-8.17-1.45,18.75,18.75,0,0,1-6.16-4.2L58,78.1a14.41,14.41,0,0,0,3.89,2.55,11.49,11.49,0,0,0,4.84,1,9.71,9.71,0,0,0,2.77-.39A6.16,6.16,0,0,0,71.85,80a6,6,0,0,0,1.6-2.26A8.74,8.74,0,0,0,74,74.41V72.5A7.9,7.9,0,0,1,70.37,76,12.09,12.09,0,0,1,65.14,77.09Zm3.8-8.39a5.16,5.16,0,0,0,2.83-.76A8.23,8.23,0,0,0,74,65.68V60.42a7.16,7.16,0,0,0-2.33-3.19,5.18,5.18,0,0,0-3.21-1.18,4.37,4.37,0,0,0-2.1.53A5.94,5.94,0,0,0,64.69,58a6.07,6.07,0,0,0-1.12,2.07,8.25,8.25,0,0,0-.39,2.55A6.09,6.09,0,0,0,64.8,67,5.5,5.5,0,0,0,68.94,68.7Z"/><path d="M92.89,34.5H95l7.16,40.13L115,52.44l-3.25-17.58h2l2.74,15.72,9-15.72h2L117.18,52.44l4.14,22.19,23-40.13h2.13L121.71,77.09h-1.84l-4.14-22.67L102.57,77.09h-1.84Z"/><path d="M151.54,77.65a9.28,9.28,0,0,1-4.34-1,10.22,10.22,0,0,1-3.27-2.72,12,12,0,0,1-2-3.92,15.06,15.06,0,0,1-.7-4.61,17.11,17.11,0,0,1,1.34-6.63,19.71,19.71,0,0,1,3.61-5.71,18.28,18.28,0,0,1,5.2-4,13.12,13.12,0,0,1,6.08-1.51,9.89,9.89,0,0,1,3.44.56,9.4,9.4,0,0,1,2.74,1.53,10.64,10.64,0,0,1,2.07,2.27A12,12,0,0,1,167,54.6l1.4-6.61h2L164.86,73.9a2,2,0,0,0-.11.68q0,.72.78.72l-.39,1.79-.28,0-.28,0a1.59,1.59,0,0,1-1.32-.53,2,2,0,0,1-.42-1.26,2.38,2.38,0,0,1,0-.36c0-.14.06-.34.11-.62s.13-.67.23-1.18.23-1.18.42-2a18.74,18.74,0,0,1-5.6,4.7A13.26,13.26,0,0,1,151.54,77.65Zm.56-1.79a10.72,10.72,0,0,0,3.58-.67,16.42,16.42,0,0,0,3.67-1.85,15.74,15.74,0,0,0,3.1-2.68,8.49,8.49,0,0,0,1.85-3.19l2.13-10a9.15,9.15,0,0,0-1-3.08,9.65,9.65,0,0,0-2-2.57A9.93,9.93,0,0,0,160.61,50a8.59,8.59,0,0,0-3.42-.67,10.79,10.79,0,0,0-5.34,1.42,16.55,16.55,0,0,0-4.48,3.7,18.66,18.66,0,0,0-3.08,5.09,15.07,15.07,0,0,0-1.14,5.68,12.22,12.22,0,0,0,.67,4.06,11.35,11.35,0,0,0,1.84,3.38A9.09,9.09,0,0,0,148.49,75,7.72,7.72,0,0,0,152.1,75.86Z"/><path d="M170.23,88.06a14.5,14.5,0,0,0,2.94-.84,8.07,8.07,0,0,0,2.21-1.37,12.86,12.86,0,0,0,2-2.18c.63-.88,1.36-1.93,2.18-3.16l2.13-3.3L175.21,48h2l5.82,27.09,3-4.76c1.72-2.72,3.17-5.11,4.37-7.16s2.2-3.92,3-5.6,1.51-3.27,2.07-4.78S196.55,49.67,197,48h1.9q-.78,2.68-1.62,5a48,48,0,0,1-2.13,4.93q-1.29,2.59-3.16,5.79t-4.68,7.61l-4.53,7.22c-1.3,2.09-2.46,3.81-3.47,5.18A21.79,21.79,0,0,1,176.47,87a9.93,9.93,0,0,1-2.77,1.82,12.17,12.17,0,0,1-3.25.81Z"/><path class="cls-3" d="M33.8,66.18a10.18,10.18,0,0,1-1.12,4.94,9.46,9.46,0,0,1-3.08,3.39A13.85,13.85,0,0,1,25,76.46a23.31,23.31,0,0,1-5.51.63H0V34.5H23.06a7.42,7.42,0,0,1,3.75,1A9.58,9.58,0,0,1,29.66,38a11.77,11.77,0,0,1,1.82,3.48,12.62,12.62,0,0,1,.64,4,12.11,12.11,0,0,1-1.43,5.73,9.18,9.18,0,0,1-4.28,4.11A10.42,10.42,0,0,1,31.81,59,11.71,11.71,0,0,1,33.8,66.18ZM10.91,44.46V51h7.45a3.45,3.45,0,0,0,2-.66,3.1,3.1,0,0,0,.92-2.64,3.35,3.35,0,0,0-.78-2.49,2.6,2.6,0,0,0-1.85-.75ZM22.72,63.78a4.26,4.26,0,0,0-.78-2.61,2.43,2.43,0,0,0-2-1.05h-9v7.14h8.62a3.13,3.13,0,0,0,2.27-.9A3.46,3.46,0,0,0,22.72,63.78Z"/><path class="cls-3" d="M37.83,77.09V47.66H48.46V77.09Z"/><path class="cls-3" d="M65.14,77.09A11.93,11.93,0,0,1,59.91,76a12.16,12.16,0,0,1-4.06-3.14,14.24,14.24,0,0,1-2.6-4.67,17.67,17.67,0,0,1-.93-5.82,18,18,0,0,1,1-6.1,14.2,14.2,0,0,1,2.83-4.81,12.85,12.85,0,0,1,4.33-3.16A13.15,13.15,0,0,1,66,47.1a11.92,11.92,0,0,1,5.6,1.26A9.36,9.36,0,0,1,75.43,52V47.66h9.24V74.41a14.83,14.83,0,0,1-1.29,6.27,13.37,13.37,0,0,1-3.64,4.75,17,17,0,0,1-5.65,3,23.17,23.17,0,0,1-7.33,1.09,21,21,0,0,1-8.17-1.45,18.75,18.75,0,0,1-6.16-4.2L58,78.1a14.41,14.41,0,0,0,3.89,2.55,11.49,11.49,0,0,0,4.84,1,9.71,9.71,0,0,0,2.77-.39A6.16,6.16,0,0,0,71.85,80a6,6,0,0,0,1.6-2.26A8.74,8.74,0,0,0,74,74.41V72.5A7.9,7.9,0,0,1,70.37,76,12.09,12.09,0,0,1,65.14,77.09Zm3.8-8.39a5.16,5.16,0,0,0,2.83-.76A8.23,8.23,0,0,0,74,65.68V60.42a7.16,7.16,0,0,0-2.33-3.19,5.18,5.18,0,0,0-3.21-1.18,4.37,4.37,0,0,0-2.1.53A5.94,5.94,0,0,0,64.69,58a6.07,6.07,0,0,0-1.12,2.07,8.25,8.25,0,0,0-.39,2.55A6.09,6.09,0,0,0,64.8,67,5.5,5.5,0,0,0,68.94,68.7Z"/><path class="cls-3" d="M92.89,34.5H95l7.16,40.13L115,52.44l-3.25-17.58h2l2.74,15.72,9-15.72h2L117.18,52.44l4.14,22.19,23-40.13h2.13L121.71,77.09h-1.84l-4.14-22.67L102.57,77.09h-1.84Z"/><path class="cls-3" d="M151.54,77.65a9.28,9.28,0,0,1-4.34-1,10.22,10.22,0,0,1-3.27-2.72,12,12,0,0,1-2-3.92,15.06,15.06,0,0,1-.7-4.61,17.11,17.11,0,0,1,1.34-6.63,19.71,19.71,0,0,1,3.61-5.71,18.28,18.28,0,0,1,5.2-4,13.12,13.12,0,0,1,6.08-1.51,9.89,9.89,0,0,1,3.44.56,9.4,9.4,0,0,1,2.74,1.53,10.64,10.64,0,0,1,2.07,2.27A12,12,0,0,1,167,54.6l1.4-6.61h2L164.86,73.9a2,2,0,0,0-.11.68q0,.72.78.72l-.39,1.79-.28,0-.28,0a1.59,1.59,0,0,1-1.32-.53,2,2,0,0,1-.42-1.26,2.38,2.38,0,0,1,0-.36c0-.14.06-.34.11-.62s.13-.67.23-1.18.23-1.18.42-2a18.74,18.74,0,0,1-5.6,4.7A13.26,13.26,0,0,1,151.54,77.65Zm.56-1.79a10.72,10.72,0,0,0,3.58-.67,16.42,16.42,0,0,0,3.67-1.85,15.74,15.74,0,0,0,3.1-2.68,8.49,8.49,0,0,0,1.85-3.19l2.13-10a9.15,9.15,0,0,0-1-3.08,9.65,9.65,0,0,0-2-2.57A9.93,9.93,0,0,0,160.61,50a8.59,8.59,0,0,0-3.42-.67,10.79,10.79,0,0,0-5.34,1.42,16.55,16.55,0,0,0-4.48,3.7,18.66,18.66,0,0,0-3.08,5.09,15.07,15.07,0,0,0-1.14,5.68,12.22,12.22,0,0,0,.67,4.06,11.35,11.35,0,0,0,1.84,3.38A9.09,9.09,0,0,0,148.49,75,7.72,7.72,0,0,0,152.1,75.86Z"/><path class="cls-3" d="M170.23,88.06a14.5,14.5,0,0,0,2.94-.84,8.07,8.07,0,0,0,2.21-1.37,12.86,12.86,0,0,0,2-2.18c.63-.88,1.36-1.93,2.18-3.16l2.13-3.3L175.21,48h2l5.82,27.09,3-4.76c1.72-2.72,3.17-5.11,4.37-7.16s2.2-3.92,3-5.6,1.51-3.27,2.07-4.78S196.55,49.67,197,48h1.9q-.78,2.68-1.62,5a48,48,0,0,1-2.13,4.93q-1.29,2.59-3.16,5.79t-4.68,7.61l-4.53,7.22c-1.3,2.09-2.46,3.81-3.47,5.18A21.79,21.79,0,0,1,176.47,87a9.93,9.93,0,0,1-2.77,1.82,12.17,12.17,0,0,1-3.25.81Z"/></g></g></svg>