<?xml version="1.0" encoding="UTF-8" standalone="no"?>
<svg
   xmlns:dc="http://purl.org/dc/elements/1.1/"
   xmlns:cc="http://creativecommons.org/ns#"
   xmlns:rdf="http://www.w3.org/1999/02/22-rdf-syntax-ns#"
   xmlns:svg="http://www.w3.org/2000/svg"
   xmlns="http://www.w3.org/2000/svg"
   xmlns:sodipodi="http://sodipodi.sourceforge.net/DTD/sodipodi-0.dtd"
   xmlns:inkscape="http://www.inkscape.org/namespaces/inkscape"
   width="151.07295mm"
   height="75.000465mm"
   viewBox="0 0 151.07295 75.000465"
   version="1.1"
   id="svg8"
   inkscape:version="1.0.2 (1.0.2+r75+1)"
   sodipodi:docname="logo01.svg">
  <defs
     id="defs2" />
  <sodipodi:namedview
     id="base"
     pagecolor="#ffffff"
     bordercolor="#666666"
     borderopacity="1.0"
     inkscape:pageopacity="0.0"
     inkscape:pageshadow="2"
     inkscape:zoom="0.9899495"
     inkscape:cx="116.65461"
     inkscape:cy="212.40978"
     inkscape:document-units="mm"
     inkscape:current-layer="layer1"
     inkscape:document-rotation="0"
     showgrid="false"
     inkscape:window-width="1920"
     inkscape:window-height="1021"
     inkscape:window-x="0"
     inkscape:window-y="27"
     inkscape:window-maximized="1" />
  <metadata
     id="metadata5">
    <rdf:RDF>
      <cc:Work
         rdf:about="">
        <dc:format>image/svg+xml</dc:format>
        <dc:type
           rdf:resource="http://purl.org/dc/dcmitype/StillImage" />
        <dc:title></dc:title>
      </cc:Work>
    </rdf:RDF>
  </metadata>
  <g
     inkscape:label="Capa 1"
     inkscape:groupmode="layer"
     id="layer1"
     transform="translate(-31.842669,-0.60257018)">
    <rect
       style="fill:#590960;fill-opacity:1;stroke-width:0.173203"
       id="rect160"
       width="151.07254"
       height="75.298431"
       x="31.843081"
       y="0.60257018" />
    <path
       style="fill:#fbef75;fill-opacity:1;stroke-width:0.23048"
       d="m 73.548444,65.956462 c 0.107695,0 0.228854,-0.985534 0.26925,-2.190077 0.0661,-1.971506 0.0326,-2.190025 -0.335615,-2.189561 -0.586566,6.53e-4 -0.858593,0.926244 -0.858593,2.921185 0,1.490368 0.05201,1.718301 0.364571,1.598356 0.200513,-0.07695 0.452685,-0.139903 0.560387,-0.139903 z m 1.547828,-0.417458 c 0.155773,-0.09896 0.363401,-0.737014 0.461394,-1.417907 0.248533,-1.726972 0.753498,-1.82275 0.753498,-0.142916 0,0.999489 0.07848,1.286843 0.351426,1.286843 0.491094,0 0.835314,-1.045484 0.754209,-2.290723 -0.059,-0.906102 -0.143739,-1.061888 -0.613639,-1.128371 -0.299832,-0.0424 -0.657654,0.03534 -0.795154,0.172858 -0.137493,0.137499 -0.540395,0.249996 -0.895335,0.249996 h -0.645346 v 1.728598 c 0,1.708469 0.07539,1.89327 0.628947,1.541622 z m 4.648058,-0.945688 c 0.4497,-0.284747 0.146346,-0.97412 -0.345585,-0.785347 -0.337673,0.129575 -0.365609,0.03352 -0.218917,-0.752949 0.09249,-0.495811 0.314597,-0.984417 0.493583,-1.085787 0.445362,-0.252238 0.427199,-0.941219 -0.02025,-0.769504 -0.231553,0.08886 -0.345715,-0.01006 -0.345715,-0.299479 0,-0.57152 -0.935764,-0.356927 -1.094752,0.251041 -0.06128,0.234329 -0.203035,0.426055 -0.315015,0.426055 -0.111981,0 -0.203597,0.155571 -0.203597,0.345716 0,0.190145 0.103716,0.345722 0.230475,0.345722 0.126765,0 0.230481,0.501293 0.230481,1.113985 0,0.612692 0.06914,1.183134 0.153657,1.267642 0.217532,0.217539 1.054512,0.184252 1.435671,-0.0571 z m 2.524922,-0.503239 c 0.48933,-0.170578 0.725835,-0.403915 0.725835,-0.716095 0,-0.350629 -0.09794,-0.422756 -0.403339,-0.29703 -0.945145,0.389097 -1.210018,0.394657 -1.210018,0.02542 0,-0.258333 0.207007,-0.372607 0.674974,-0.372607 0.998457,0 1.431666,-0.529935 1.133173,-1.386194 -0.198827,-0.57035 -0.364231,-0.686871 -0.966398,-0.680795 -1.230297,0.01241 -1.99415,0.926407 -1.99415,2.386108 0,1.176705 0.670107,1.518735 2.039923,1.041217 z m -0.840169,-2.242703 c 0.08333,-0.432687 0.674229,-0.52531 0.807162,-0.126517 0.04743,0.142314 -0.131463,0.315688 -0.397557,0.385274 -0.364381,0.09529 -0.465484,0.03143 -0.409605,-0.258757 z m 3.415827,0.651892 c 0.140264,-1.200088 0.348852,-1.613363 0.814303,-1.613363 0.20184,0 0.33212,-0.229214 0.33212,-0.584305 0,-0.536606 -0.04234,-0.561079 -0.51858,-0.299787 -0.285217,0.156485 -0.751949,0.256432 -1.037166,0.222093 -0.434072,-0.05227 -0.51858,0.04769 -0.51858,0.613339 0,0.371671 -0.06722,1.166192 -0.149378,1.765595 -0.144183,1.051958 -0.130169,1.08712 0.403346,1.011706 0.467431,-0.06606 0.571415,-0.238151 0.673935,-1.115278 z m 2.164735,0.55154 c 0.261939,-0.100521 0.364571,-0.449418 0.364571,-1.239418 0,-0.696181 0.126811,-1.204777 0.345715,-1.386442 0.378101,-0.313794 0.430178,-0.07122 0.352524,1.641986 -0.03548,0.782799 -7.2e-5,0.828081 0.563385,0.720373 0.58895,-0.112588 0.59988,-0.148534 0.53411,-1.757233 -0.07408,-1.812223 0.06122,-1.709082 -1.826787,-1.392714 -0.749271,0.12555 -0.852438,0.229305 -0.977002,0.982561 -0.207445,1.254411 -0.172988,2.570785 0.06728,2.570785 0.116397,0 0.375691,-0.06298 0.576204,-0.139898 z m 5.341841,-1.030725 c 0.162999,-0.135278 0.240301,-0.392049 0.171787,-0.570611 -0.09517,-0.24801 -0.232207,-0.267048 -0.580516,-0.08064 -0.498431,0.266754 -1.111352,0.131515 -1.111352,-0.245214 0,-0.130744 0.418124,-0.237713 0.929158,-0.237713 1.057178,0 1.341638,-0.383439 1.003154,-1.352228 -0.160915,-0.460545 -0.392324,-0.624315 -0.959838,-0.679293 -1.653491,-0.16017 -2.890557,2.379823 -1.606288,3.298097 0.543864,0.388874 1.604354,0.323685 2.153895,-0.132398 z m -1.520081,-1.779524 c 0,-0.10141 0.124459,-0.308842 0.27658,-0.460956 0.368876,-0.368883 0.645346,-0.349825 0.645346,0.04449 0,0.176582 -0.164058,0.384014 -0.364577,0.460957 -0.477153,0.183102 -0.557349,0.176706 -0.557349,-0.04449 z m 4.351035,1.359022 c 0.371869,-0.235532 0.149952,-0.713676 -0.331238,-0.713676 -0.465268,0 -0.453044,-1.581416 0.01359,-1.760494 0.190152,-0.07296 0.345723,-0.277142 0.345723,-0.453724 6e-6,-0.176582 -0.155571,-0.321059 -0.345716,-0.321059 -0.190145,0 -0.345722,-0.155577 -0.345722,-0.345722 0,-0.540225 -0.598966,-0.40594 -1.013882,0.227306 -0.267578,0.408377 -0.337249,0.855378 -0.24247,1.55574 0.262403,1.939061 0.301498,2.020106 0.972644,2.016343 0.346186,-0.002 0.772365,-0.09406 0.947059,-0.204714 z m 4.407208,-0.796538 c 0.418732,-0.193353 0.596612,-0.479459 0.650902,-1.046973 0.0411,-0.429499 -0.0463,-0.855672 -0.19409,-0.947047 -0.201445,-0.124492 -0.191704,-0.289634 0.0388,-0.658784 0.22978,-0.367949 0.24349,-0.594536 0.0542,-0.895192 -0.309029,-0.490715 -0.81385,-0.606028 -1.82374,-0.416569 l -0.76693,0.143883 -0.07924,2.009392 c -0.04358,1.105165 -0.04123,2.093253 0.0052,2.195747 0.09801,0.216272 1.278768,0.0013 2.114885,-0.384457 z m -1.613357,-0.6956 c 0,-0.652591 0.508584,-1.134395 1.081064,-1.024146 0.567318,0.109263 0.671779,0.900118 0.167586,1.268792 -0.673772,0.492675 -1.248643,0.380048 -1.24865,-0.244646 z m 0.230482,-2.059627 c 0,-0.613136 0.641079,-0.936475 1.184499,-0.597423 0.430661,0.268701 -0.0262,0.990447 -0.689459,1.089119 -0.391873,0.05828 -0.49504,-0.04416 -0.49504,-0.491696 z m 4.590607,2.461595 0.73008,-0.146019 -0.0675,-1.524962 c -0.062,-1.402515 -0.11097,-1.531123 -0.60947,-1.601689 -0.72306,-0.102344 -1.64754,0.14302 -1.64754,0.43728 0,0.145496 0.31047,0.178287 0.80668,0.0852 0.71499,-0.134135 0.80668,-0.09603 0.80668,0.335276 0,0.338117 -0.14529,0.486606 -0.47611,0.486606 -0.90798,0 -1.36773,0.428839 -1.36773,1.275749 0,0.871476 0.26193,0.965144 1.82486,0.652559 z m -1.2549,-0.55552 c -0.20824,-0.336941 0.32207,-0.911825 0.84114,-0.911825 0.48918,0 0.57132,0.460669 0.15617,0.87582 -0.34056,0.340568 -0.79886,0.35711 -0.99731,0.036 z M 60.186111,58.798405 c 5.676222,-1.608333 7.949788,-2.654137 9.806484,-4.510833 1.490094,-1.490087 2.169928,-3.146649 2.169928,-5.287439 0,-0.82328 -0.143,-1.839135 -0.317785,-2.257455 -0.349309,-0.836006 -1.331727,-1.716322 -2.082082,-1.865679 -0.264625,-0.05266 -0.783472,-0.160412 -1.153002,-0.239419 l -0.671871,-0.143641 0.671871,-0.420091 c 1.975922,-1.235452 3.322395,-3.424791 3.322395,-5.402144 0,-3.228374 -1.87467,-4.560649 -5.903633,-4.195556 -1.327559,0.120304 -9.849702,2.211918 -10.119743,2.483723 -0.11805,0.118814 -1.23095,18.606168 -1.273809,21.160274 -0.0343,2.044972 -0.02979,2.07432 0.317688,2.07432 0.168585,0 2.52368,-0.628229 5.233559,-1.39606 z m 0.914752,-5.666546 c 6.54e-4,-0.36216 0.06801,-1.51428 0.14943,-2.56026 l 0.148044,-1.901783 0.879682,-0.236871 c 1.583546,-0.426402 2.536439,-0.355274 3.005804,0.224367 0.507428,0.626653 0.539715,1.367391 0.104944,2.407955 -0.446955,1.069696 -1.172784,1.677521 -2.539706,2.12677 -0.645358,0.21211 -1.303019,0.433497 -1.461478,0.491976 -0.18823,0.06947 -0.287621,-0.121924 -0.28672,-0.552154 z m 0.550162,-9.43557 c 0.07695,-0.200513 0.139898,-1.120211 0.139898,-2.043777 v -1.679213 l 1.199917,-0.23725 c 1.542706,-0.305033 2.248099,-0.05664 2.283823,0.804288 0.04416,1.064038 -0.04776,1.535905 -0.409036,2.099336 -0.63678,0.993165 -3.558808,1.953617 -3.214602,1.056616 z m 43.470135,15.512295 c 0,-1.049919 0.50175,-2.010359 1.05024,-2.010359 0.25575,0 0.33264,0.346271 0.33264,1.498117 0,0.823965 0.0918,1.498123 0.20393,1.498123 0.27104,0 0.56193,-2.398711 0.3658,-3.016617 -0.13825,-0.435601 -0.26564,-0.469522 -1.2263,-0.326541 -0.58962,0.08776 -1.08518,0.175785 -1.10127,0.195614 -0.0161,0.01986 -0.10212,0.736145 -0.1912,1.591804 -0.13871,1.332425 -0.10971,1.55574 0.2021,1.55574 0.27503,0 0.36406,-0.241118 0.36406,-0.985881 z m 5.61904,-0.940689 c 0.23375,-2.236307 0.18173,-3.425614 -0.14513,-3.318311 -0.15846,0.05201 -0.32122,0.432007 -0.36171,0.844415 -0.0531,0.540969 -0.16601,0.714376 -0.40534,0.622537 -0.18246,-0.07002 -0.58491,-0.03103 -0.89433,0.08659 -0.71545,0.272013 -1.21469,1.871814 -0.84045,2.693186 0.2134,0.468359 0.39054,0.531313 1.37449,0.488501 l 1.12951,-0.04913 z m -2.07145,0.411454 c -0.21963,-0.875043 0.24071,-1.711605 0.94184,-1.711605 0.51924,0 0.58113,0.09328 0.58113,0.87582 0,0.481706 -0.12446,1.000286 -0.27657,1.152401 -0.47473,0.474735 -1.08682,0.319249 -1.2464,-0.316616 z m 4.62108,0.614835 c 0.071,-0.114869 0.31965,-0.159008 0.55257,-0.0981 0.38268,0.100071 0.41438,-0.01862 0.32893,-1.231662 -0.052,-0.738321 -0.13571,-1.472049 -0.18601,-1.630501 -0.15442,-0.486482 -2.18023,-0.309358 -2.18023,0.190628 0,0.109413 0.37763,0.176099 0.83918,0.148202 1.17981,-0.07132 1.19517,0.358586 0.0272,0.762324 -0.98685,0.341142 -1.32167,0.919273 -1.00712,1.738992 0.13861,0.361206 1.41801,0.455749 1.62545,0.120115 z m -1.02379,-0.704975 c 0,-0.567782 0.86214,-1.081998 1.2178,-0.726345 0.17486,0.174863 0.12385,0.381785 -0.17571,0.712795 -0.53652,0.592844 -1.04209,0.599416 -1.04209,0.01352 z m 4.88168,-0.06573 c 0.0586,-0.412551 0.24421,-0.532842 0.9079,-0.588323 0.67964,-0.05684 0.85717,0.01797 0.95796,0.403339 0.068,0.260195 0.28239,0.473082 0.47632,0.473082 0.34252,0 0.18893,-0.845257 -0.68055,-3.745301 -0.0665,-0.221838 -0.30718,-0.403339 -0.53482,-0.403339 -0.31176,0 -0.59227,0.49868 -1.13687,2.021139 -0.82928,2.318319 -0.83589,2.357983 -0.39329,2.357983 0.18133,0 0.36284,-0.233363 0.40335,-0.51858 z m 0.4369,-1.267637 c 0.0536,-0.52802 0.61018,-1.72765 0.71594,-1.543006 0.37049,0.646848 0.39716,1.444419 0.0527,1.5766 -0.49082,0.188342 -0.78985,0.175276 -0.76866,-0.03358 z m 3.43967,0.50343 c 0,-1.27196 0.32149,-1.943929 0.93002,-1.943929 0.39983,0 0.45286,0.161908 0.45286,1.382882 0,0.76058 0.0974,1.382876 0.21635,1.382876 0.28844,0 0.56451,-1.917136 0.38122,-2.647394 -0.13319,-0.530706 -0.24104,-0.574819 -1.29336,-0.529034 -0.98339,0.04279 -1.14834,0.117149 -1.15006,0.51841 -10e-4,0.257654 -0.0674,1.012968 -0.14734,1.678482 -0.12332,1.026719 -0.0881,1.210017 0.23248,1.210017 0.29494,0 0.37783,-0.230834 0.37783,-1.05231 z m 4.96888,0.483444 c 0.46541,-0.352014 0.43298,-0.371875 -0.705,-0.431851 -0.59635,-0.03142 -0.70108,-0.135487 -0.76151,-0.756594 -0.0892,-0.916484 0.49882,-1.556387 1.2556,-1.366445 0.39192,0.09837 0.54307,0.03887 0.54307,-0.213815 0,-0.519926 -1.44384,-0.458487 -1.93322,0.08227 -0.65391,0.722569 -0.73596,1.96901 -0.16705,2.537923 0.57103,0.571029 1.14567,0.619304 1.76811,0.148515 z m 1.71504,-1.292867 c 0.10592,-1.148677 0.16184,-1.249747 0.69144,-1.249747 0.55599,0 0.57372,0.04645 0.50556,1.325259 -0.0582,1.0907 -0.005,1.325265 0.29819,1.325265 0.31044,0 0.35812,-0.264566 0.30112,-1.670981 l -0.0677,-1.670981 -0.89238,0.05396 c -0.87582,0.05298 -0.88983,0.04122 -0.75482,-0.63382 0.0978,-0.488782 0.0485,-0.687799 -0.17029,-0.687799 -0.33101,0 -0.597,1.565291 -0.60054,3.534027 -0.003,1.563345 0.53885,1.307854 0.68944,-0.325201 z m 5.25333,-0.131424 c 0.0419,-1.630585 -0.22127,-1.995012 -1.35999,-1.88311 -0.99605,0.09788 -1.16391,0.616488 -0.18436,0.569566 0.40957,-0.0196 0.78123,0.09252 0.8376,0.252721 0.1035,0.294109 -0.054,0.380257 -1.11946,0.612169 -0.68051,0.148123 -0.99386,0.898628 -0.64632,1.547992 0.17278,0.322849 0.46672,0.403816 1.32897,0.36608 l 1.10711,-0.04848 z m -1.93903,0.736557 c -0.19041,-0.496197 0.0977,-0.81772 0.7327,-0.81772 0.60127,0 0.73927,0.42258 0.28602,0.875827 -0.37599,0.375985 -0.8628,0.348218 -1.01872,-0.05808 z M 88.504135,56.382609 c 1.830498,-0.431478 3.586078,-1.292912 4.594067,-2.254227 1.967736,-1.87661 2.647486,-4.221376 3.019485,-10.41559 0.144569,-2.407224 0.362605,-5.84823 0.484529,-7.646682 0.121918,-1.798452 0.221674,-3.366455 0.221674,-3.484453 0,-0.117991 -0.648226,-0.40151 -1.440499,-0.630025 -2.785606,-0.803458 -7.060966,-0.379819 -9.277784,0.919319 -3.158637,1.851091 -5.084378,5.306699 -5.352066,9.603926 -0.297017,4.768055 1.7654,7.657031 5.179809,7.25573 1.516998,-0.178287 2.432613,-0.616135 3.572796,-1.708514 0.964412,-0.923971 1.024963,-0.814898 0.61328,1.104714 -0.138061,0.643758 -0.494923,1.460334 -0.79303,1.814609 -0.981895,1.166924 -3.389289,1.507093 -5.948412,0.840527 -0.730017,-0.190145 -1.362845,-0.345722 -1.406278,-0.345722 -0.04345,0 -0.245802,0.416968 -0.449713,0.926584 -0.438991,1.097149 -0.495837,3.348025 -0.09088,3.598302 1.199526,0.741346 4.804701,0.956193 7.07302,0.421502 z M 87.016727,43.953021 c -0.665886,-1.593685 -0.220642,-5.127647 0.841298,-6.677442 0.621088,-0.906422 1.300204,-1.281518 2.320194,-1.281518 h 0.708007 l -0.150958,2.247178 c -0.297095,4.422659 -0.343318,4.625211 -1.280232,5.610111 -1.138465,1.196775 -1.966325,1.231297 -2.438309,0.101671 z m 53.948843,11.646233 c 2.86689,-1.328871 5.09908,-2.910718 7.48851,-5.306725 5.2051,-5.219447 7.83365,-11.498959 7.83365,-18.714288 v -2.511593 l -3.1691,0.06409 -3.1691,0.06416 -0.0453,2.765758 c -0.0543,3.314829 -0.36526,5.179299 -1.24925,7.490608 -0.80453,2.103505 -1.79897,3.806596 -1.80973,3.099322 -0.004,-0.260215 -0.26648,-3.044782 -0.58339,-6.187929 -0.31691,-3.143147 -0.5762,-6.067658 -0.5762,-6.498907 v -0.784093 h -2.95219 c -3.92325,0 -3.95197,0.02045 -3.43955,2.449997 2.53598,12.023557 3.37851,16.290391 3.2559,16.488781 -0.2449,0.39627 -3.45159,2.410458 -4.56964,2.870284 l -1.05103,0.432262 -6.6e-4,1.354058 c -6.5e-4,0.969625 0.17229,1.739887 0.60899,2.712995 0.70255,1.565475 0.52966,1.554825 3.42831,0.211221 z M 78.692046,54.21809 c 0.205112,-0.205106 0.573257,-5.485175 0.984965,-14.126754 0.134638,-2.825956 0.106931,-3.414324 -0.165678,-3.518935 -0.267623,-0.102697 -5.452045,0.902718 -5.639335,1.093634 -0.118598,0.120898 -0.551965,6.939466 -0.684747,10.773947 -0.129582,3.741799 -0.107159,4.084437 0.310102,4.739328 0.710097,1.114501 1.745716,1.525112 3.488915,1.38332 0.814976,-0.06629 1.582579,-0.221335 1.705778,-0.34454 z m 25.125004,-4.547778 c 2.82745,-0.345318 3.21043,-0.443977 3.36774,-0.867595 0.0976,-0.262887 0.62959,-2.839519 1.18214,-5.725856 0.55256,-2.88633 1.06928,-5.064366 1.14827,-4.840078 0.079,0.224288 0.33064,2.585831 0.55921,5.24788 0.22857,2.662042 0.49727,4.931831 0.5971,5.043969 0.1365,0.153317 6.89557,-0.245469 6.89557,-0.406835 0,-0.01555 0.67573,-2.880286 1.50161,-6.366098 2.157,-9.104123 2.70053,-11.546973 2.59306,-11.654445 -0.19508,-0.195078 -5.37252,0.43023 -5.61967,0.678724 -0.14155,0.142314 -0.64926,2.747948 -1.12824,5.79028 -0.83293,5.290483 -1.26845,7.036505 -1.2619,5.059041 0.001,-0.500718 -0.17445,-3.116824 -0.39134,-5.813578 l -0.39436,-4.903176 -1.7406,0.155322 c -0.95733,0.08543 -2.25028,0.217546 -2.87323,0.29358 l -1.13264,0.138251 -0.96196,4.263881 c -0.52908,2.345138 -1.17001,5.197325 -1.42429,6.338201 l -0.46234,2.074321 -0.11278,-6.050083 c -0.062,-3.327543 -0.15599,-6.089466 -0.20882,-6.137603 -0.13389,-0.121997 -5.688052,0.717871 -5.992764,0.906193 -0.136592,0.08442 -0.194065,0.375547 -0.127713,0.646933 0.06635,0.271393 0.541041,3.760491 1.054865,7.753561 1.140382,8.862293 1.122852,8.757472 1.465172,8.761536 0.15271,0.002 1.71327,-0.172041 3.46791,-0.386326 z m 24.38856,-1.951116 c 1.00311,-0.215128 1.43549,-0.483797 2.51347,-1.561777 l 1.30195,-1.301948 0.20601,0.692523 c 0.3172,1.066318 1.51184,1.739587 3.0867,1.739587 2.64113,0 3.42095,-0.727156 3.63463,-3.389165 l 0.11646,-1.450913 h -0.84546 c -0.50266,0 -0.89453,-0.127844 -0.96646,-0.315297 -0.0666,-0.173413 0.0404,-2.773539 0.23771,-5.778063 0.19729,-3.004524 0.35871,-5.592034 0.35871,-5.750015 0,-0.157988 -0.54451,-0.507095 -1.21003,-0.775796 -3.81175,-1.539009 -7.6089,-1.554845 -10.5702,-0.0441 -3.60818,1.840749 -5.75726,7.572229 -4.79371,12.784529 0.48621,2.630198 1.84075,4.48632 3.6963,5.065065 1.26927,0.395871 1.72944,0.408023 3.23392,0.08537 z m -0.0489,-5.004991 c -1.04087,-0.842834 -1.02719,-5.609602 0.0223,-7.77759 0.51859,-1.071271 1.53781,-1.708319 2.73315,-1.708319 0.83946,0 0.80617,-0.30894 0.47083,4.369146 -0.26218,3.65746 -0.57734,4.54753 -1.84173,5.201369 -0.81591,0.42192 -0.7544,0.425676 -1.38456,-0.08461 z M 78.329592,33.748052 c 0.474415,-0.245057 1.171824,-0.88336 1.549801,-1.418443 0.591171,-0.836888 0.687812,-1.182892 0.691438,-2.475516 0.0039,-1.419515 -0.03907,-1.541328 -0.777762,-2.201863 -0.700003,-0.625922 -0.90102,-0.68778 -1.917665,-0.590087 -2.389558,0.229606 -4.216685,2.36611 -4.038293,4.72208 0.181338,2.394955 2.064357,3.218091 4.492481,1.963829 z m 31.637948,-6.835247 c 3.38096,-1.686811 5.3249,-5.375403 4.63956,-8.80348 -0.57054,-2.853768 -2.04473,-4.874587 -4.39978,-6.031176 -1.15432,-0.5669 -1.52636,-0.629613 -3.70328,-0.624224 -1.97855,0.0046 -2.69334,0.107264 -3.91815,0.561112 -1.04456,0.387052 -2.19593,0.594582 -3.80292,0.685447 l -2.304802,0.130333 v 0.799871 c 0,0.621806 0.128268,0.864766 0.576197,1.09138 0.980053,0.495824 3.385885,0.361108 5.419065,-0.303452 2.43026,-0.794337 5.0641,-0.977185 6.45029,-0.447792 1.39192,0.531581 2.78518,2.145847 3.2591,3.776092 0.85617,2.94511 -0.44153,5.723739 -3.35498,7.183642 -0.81498,0.408377 -1.29794,0.490396 -2.42004,0.410964 -1.87202,-0.132521 -3.1449,-0.787412 -5.33799,-2.746394 -1.945619,-1.737927 -2.856648,-2.298523 -4.419117,-2.719247 -1.323737,-0.35645 -1.955728,-0.03103 -1.856964,0.95618 0.07698,0.769504 0.198364,0.863401 1.883992,1.457447 0.715415,0.252119 1.675103,0.908787 2.650517,1.813609 2.927222,2.715386 4.993532,3.652299 7.758292,3.517792 1.18853,-0.05782 1.95541,-0.246305 2.88101,-0.708104 z m -2.52259,-3.670482 c 1.79996,-0.589447 2.84045,-2.050637 2.82274,-3.964049 -0.0132,-1.425022 -0.50523,-2.421107 -1.61353,-3.266443 -0.73123,-0.557747 -1.05548,-0.645738 -2.37955,-0.645738 -1.2546,0 -1.68743,0.104624 -2.38377,0.576204 -2.8394,1.922885 -2.00823,6.593725 1.31437,7.386278 0.993,0.236865 1.28771,0.225517 2.23974,-0.08625 z M 93.551071,20.966758 c 0.417477,-0.417478 0.338267,-1.518749 -0.126766,-1.762212 -0.608661,-0.318674 -9.180902,-2.162363 -9.636971,-2.072687 -0.57099,0.112262 -0.883079,0.721942 -0.714128,1.395093 0.134429,0.535613 0.388103,0.637976 3.203038,1.292527 6.793663,1.57973 6.83575,1.586368 7.274827,1.147279 z m 6.453439,-2.304802 c 0.36241,-0.362415 0.35514,-1.451671 -0.0115,-1.72769 -0.158458,-0.119278 -1.065958,-0.38468 -2.01669,-0.589786 -1.914973,-0.41312 -6.476001,-1.426133 -14.230398,-3.160578 -2.81954,-0.630652 -5.29147,-1.083311 -5.493185,-1.005905 -0.511929,0.196443 -0.769654,1.019566 -0.502691,1.605511 0.158458,0.347793 0.570997,0.564228 1.409296,0.739392 0.651886,0.136206 1.859408,0.396643 2.683374,0.578739 0.823965,0.182096 4.609603,1.016469 8.412521,1.854161 3.802918,0.837692 7.277408,1.615781 7.721083,1.729081 1.164488,0.297389 1.714121,0.291176 2.02821,-0.02293 z m -4.805547,-4.895284 c 0.151448,-0.182482 0.241928,-0.61528 0.201081,-0.961766 -0.08504,-0.721276 -0.03142,-0.699553 -3.94863,-1.599625 -3.011913,-0.692058 -3.850029,-0.602519 -3.843196,0.410572 0.0065,0.941408 0.370706,1.149814 3.139528,1.795747 3.17761,0.7413 4.071495,0.812605 4.451217,0.355072 z"
       id="path24"
       sodipodi:nodetypes="sscssssssssssscsssssssssssssssssssssssssssssssssssssssssssssssssssssssssssssssssssssssssssssssscssssssssssssscssssssssssssssssssscssssssscscssssscsscssssssssssssssssssssscssssssssssssssssssssssssssssssssssssssssscsssssssssssssssscssscssssssssscsssssssssssssssssssssssssscssscsscccssssscssssccsccssssssssssssssssssscscsscsscssssscssscssscsssssssssssssssssscssssssscsscsssssssssssssssssssssssssssssssssssssssssscss" />
  </g>
</svg>
